<?xml version="1.0" encoding="iso-8859-1"?>
<!-- Generator: Adobe Illustrator 16.0.0, SVG Export Plug-In . SVG Version: 6.00 Build 0)  -->
<!DOCTYPE svg PUBLIC "-//W3C//DTD SVG 1.1//EN" "http://www.w3.org/Graphics/SVG/1.1/DTD/svg11.dtd">
<svg version="1.1" id="&#x5716;&#x5C64;_1" xmlns="http://www.w3.org/2000/svg" xmlns:xlink="http://www.w3.org/1999/xlink" x="0px"
	 y="0px" width="188.382px" height="108.716px" viewBox="0 0 188.382 108.716" style="enable-background:new 0 0 188.382 108.716;"
	 xml:space="preserve">
<path style="fill-rule:evenodd;clip-rule:evenodd;fill:#C09A5D;" d="M82.663,6.876c2.15,2.402,3.932,5.008,5.174,7.827
	c1.406,3.028,2.076,6.291,2.359,9.772c0.123,0.372,0.54,0.704,0.956,0.783c2.059,0,4.221,0.037,6.159-0.079
	c0.419-0.081,0.786-0.416,0.875-0.83c0.241-6.163,2.524-11.587,6.249-16.308c0.875-1.166,2.153-2.027,2.771-3.271
	c0.498-0.995,0.377-2.276-0.12-3.224c-0.702-1.124-1.907-1.619-3.232-1.538c-1.566-0.081-2.562,1.577-3.395,2.695
	c-3.306,5.873-4.841,12.58-5.171,19.655l-0.167,0.419c-0.576,0.288-1.489,0.411-1.984-0.084c-0.291-6.042-1.702-11.876-4.094-17.222
	c-0.914-1.82-1.786-3.719-3.476-5.05c-1.085-0.582-2.577-0.456-3.531,0.165c-0.903,0.582-1.445,1.577-1.49,2.65
	C80.424,4.771,81.548,5.85,82.663,6.876z"/>
<path style="fill-rule:evenodd;clip-rule:evenodd;fill:#C09A5D;" d="M100.958,27.079c0.131,7.622,3.195,14.741,9.816,18.958
	c0.912,0.411,2.069,0.411,2.902-0.157c0.738-0.422,1.272-1.2,1.436-1.954c0.707-2.729-2.441-3.685-4.055-4.877
	c-3.353-2.527-6.124-6.05-6.873-10.063c-1.074-6.04,1.744-11.423,6.506-15.024c1.32-1.158,3.138-1.493,4.008-3.144
	c0.498-1.079,0.414-2.527-0.534-3.444c-0.409-0.369-0.912-0.702-1.456-0.825c-1.524-0.493-2.557,0.576-3.715,1.289
	C103.032,12.678,100.68,19.593,100.958,27.079z"/>
<path style="fill-rule:evenodd;clip-rule:evenodd;fill:#C09A5D;" d="M74.468,12.141c4.513,2.355,8.777,6.7,9.688,11.758
	c1.155,6.124-1.828,11.504-6.582,15.15c-1.451,1.323-4.141,1.742-4.264,4.091c-0.037,1.119,0.455,2.111,1.319,2.74
	c0.872,0.492,1.904,0.697,2.905,0.335c3.35-1.784,6.118-5.265,7.65-8.628c3.932-8.932,2.897-21.143-4.385-28.309
	c-1.733-1.283-3.392-3.476-5.791-2.441c-0.911,0.335-1.629,1.283-1.825,2.192C73.02,10.274,73.434,11.348,74.468,12.141z"/>
<path style="fill-rule:evenodd;clip-rule:evenodd;fill:#C09A5D;" d="M106.841,27.126c0.162,4.34,3.101,8.277,6.951,10.218
	c1.535,0.624,3.348,1.949,5.055,0.958c0.865-0.498,1.278-1.49,1.242-2.491c-0.21-2.776-3.27-2.195-4.972-3.099
	c-2.409-0.948-5.385-3.02-5.385-5.922c-0.157-2.646,1.697-4.715,3.944-5.92c1.859-1.409,4.793-0.705,6.118-2.944
	c0.33-0.822,0.246-1.82-0.215-2.562c-0.57-0.948-1.529-1.326-2.604-1.242c-1.482,0.422-2.928,1.077-4.269,1.912
	C108.868,18.553,106.463,22.736,106.841,27.126z"/>
<path style="fill-rule:evenodd;clip-rule:evenodd;fill:#C09A5D;" d="M69.669,19.302c2.229,0.574,4.469,1.152,6.368,2.562
	c1.943,1.415,3.106,3.644,2.488,6.045c-0.624,2.527-3.188,4.063-5.422,5.005c-1.619,0.831-4.556,0.377-4.679,2.983
	c-0.128,1.119,0.456,2.153,1.407,2.648c1.448,0.794,2.818-0.244,4.102-0.66c4.343-1.949,7.692-6.375,7.653-11.26
	c0.039-4.799-3.146-9.317-7.533-11.26c-1.28-0.495-2.569-1.446-4.018-0.948c-0.912,0.327-1.611,1.236-1.739,2.143
	C68.182,17.731,68.632,18.757,69.669,19.302z"/>
<path style="fill-rule:evenodd;clip-rule:evenodd;fill:#C09A5D;" d="M100.261,37.587c-1.247-2.805-1.781-5.873-2.074-9.023
	c-0.157-0.325-0.419-0.655-0.822-0.736l-6.094-0.042l-0.448,0.167c-0.293,0.118-0.542,0.453-0.626,0.702
	c-0.283,5.954-2.52,11.255-6.082,15.936c-0.908,1.202-2.317,2.237-3.022,3.56c-0.453,0.987-0.333,2.362,0.165,3.316
	c0.741,1.325,2.237,1.695,3.644,1.485c1.286-0.207,2.187-1.574,2.813-2.567c3.439-5.998,5.051-12.74,5.464-19.995
	c0.375-0.534,1.158-0.202,1.741-0.291l0.33,0.249c0.204,2.782,0.544,5.589,1.115,8.24c1.158,4.84,2.614,9.523,5.799,13.536
	c0.749,0.747,1.865,1.001,2.939,0.828c1.073-0.16,2.147-1.118,2.482-2.189c0.288-1.121,0.205-2.399-0.497-3.313
	C104.027,44.591,101.869,41.157,100.261,37.587z"/>
<path style="fill-rule:evenodd;clip-rule:evenodd;fill:#C09A5D;" d="M76.084,80.894c0.283,0.047-0.047,0.33,0.12,0.419
	c0.045,0.115,0.126,0,0.163-0.042c0.052-0.082,0-0.257-0.079-0.33c0.579-0.136,0.204-0.791,0.579-1.038
	c0.165-0.375-0.079-0.665-0.283-0.956c-0.589-0.081-1.082-0.408-1.741-0.212c-1.493-0.157-2.617-1.152-3.893-1.857
	c-0.252-1.119-1.789-0.537-1.993-1.574c-1.066-1.2-2.727-1.325-3.971-2.35c-0.202-0.131-0.037-0.343,0.089-0.458
	c0.78-0.131,1.613-0.511,2.483-0.511c1.029-0.115,2.024-0.652,2.729-1.44c0.076-0.286,0.202-0.666-0.047-0.951
	c-0.819-0.205-1.652,0.249-2.559,0.131c-0.739-0.335,0.083-1.624-0.87-1.954c-0.867-0.414-1.247,0.835-1.736,1.197
	c-0.089,0.17-0.173,0.421-0.422,0.421c0-0.461-0.489-0.783-0.118-1.199c0.118-0.377-0.212-0.789,0.118-1.001
	c1.456,0.168,3.067,0.042,4.595,0.092l0.67-0.498c0.157-0.749,0-1.496-0.38-2.077c-1.526-0.251-3.18-0.084-4.832-0.121l-0.249-0.167
	c-0.341-1.446,1.773-1.857,1.152-3.266c-0.38-1.077-1.616-0.87-2.527-0.958c-0.453,0.298-1.116,0.089-1.409,0.709
	c0,0.993,1.084,1.574,0.875,2.606c0.036,0.288,0.123,0.749-0.081,0.945c-0.912,0.052-1.994,0-2.774,0.131
	c-0.372-0.131-0.827,0.086-1.288,0c-0.325-0.207-0.574-0.584-1.074-0.453c-0.707,0.823-1.949,0.453-2.36,1.65
	c-0.372,0.417-0.123,0.875-0.083,1.325c0.296,0.293,0.413,0.875,0.95,0.747c1.87-0.624,3.813-0.624,5.836-0.747
	c0.587-0.162,0.458,0.456,0.668,0.663c0,0.783,0.039,1.577-0.574,2.03c-0.72-0.076-1.084,0.54-1.867,0.288
	c-0.788,0.079-0.207-1.035-0.456-1.483c-0.377-0.623-1.076-0.872-1.736-0.751c-0.497,0.419-0.332,1.074-0.665,1.571
	c-0.542,0.7-1.325,0.833-1.991,1.074c-0.363,0.628-0.453,1.485-0.081,2.158c0.411,0.037,0.537,0.705,1.079,0.495
	c1.161-0.828,2.606-0.993,4.061-1.035c0.495,0.125,0.819-0.364,1.233-0.081c0.131,0.249,0.165,0.495,0,0.657
	c-1.155,0.954-1.899,2.077-3.015,3.025c-2.074,1.406-3.854,3.476-6.252,4.183c-0.666,0.042-1.281,0.157-1.703,0.54
	c0.129,0.702-0.282,1.488,0.54,1.857c0.872,0.338,1.82,0,2.53-0.456c2.773-1.367,4.099-3.761,6.576-5.503
	c0.42-0.582,0.828-1.32,1.454-1.65c0.537,0.207,0.243,0.825,0.453,1.152c-0.21,0.789,0.414,1.493,0.12,2.36
	c-0.198,0.375,0.04,0.951-0.198,1.283c-0.082,1.454,0.117,2.522-0.045,3.895c0,0.322-0.369,0.702-0.037,0.987
	c0.364,0.291,0.817,0.422,1.315,0.422c0.707-0.131,1.207-0.749,1.375-1.409c-0.168-1.412-0.464-2.441-0.134-3.895
	c-0.207-0.99-0.492-1.988-0.456-3.101c0.75-0.796,1.328,0.579,1.949,0.741c0.293,0.828,1.692,0.582,1.571,1.658
	c0.744,1.032,1.991,1.275,2.53,2.486c0.613,0.078,0.571,0.738,0.948,1.029c0.372,0.128,0.788,0.249,1.116-0.04
	c0.746-0.042,1.288-0.495,2.027-0.537C74.552,81.064,75.704,81.766,76.084,80.894z"/>
<path style="fill-rule:evenodd;clip-rule:evenodd;fill:#C09A5D;" d="M27.067,66.329c1.246-0.249,2.569-0.212,3.769-0.417
	c0.749,0.746,0.244,1.996,0.749,2.852c0.325,0.335,0.621-0.081,1.001-0.12c0.238-0.037,0.356,0.325,0.607,0.12
	c0-1.616-0.288-3.305-0.453-4.966c-0.576-0.498-0.243-1.367-0.83-1.941c-0.325-0.545-0.99-0.954-1.647-0.666
	c-0.299,0.293-0.789,0.576-0.789,0.951c0.445,0.458,0.445,1.037,0.825,1.498l-0.911,0.286c-0.867-0.165-1.731-0.579-2.522,0.076
	c0.076,0.67-0.783,0.954-0.54,1.705C26.446,65.991,26.655,66.368,27.067,66.329z"/>
<path style="fill-rule:evenodd;clip-rule:evenodd;fill:#C09A5D;" d="M158.419,65.121c0.496-0.367,1.156-0.037,1.697-0.414
	c1.775,0,3.473-0.034,5.379-0.162c0.127,0,0.242-0.165,0.209-0.333c-0.67-0.663-0.082-2.03-1.199-2.279
	c-1.42,0.173-2.818-0.115-4.223-0.115c-0.496-0.05-0.748-0.838-1.277-0.626c-0.76,0.741-1.539,1.745-1.539,2.811
	C157.962,64.212,157.837,65.045,158.419,65.121z"/>
<path style="fill-rule:evenodd;clip-rule:evenodd;fill:#C09A5D;" d="M108.58,82.591c0.576-0.66,1.534-0.582,2.021-1.367
	c-0.078-0.498-0.288-0.825-0.45-1.278c-0.288-0.165-0.576,0-0.828,0c-0.539-0.249-1.168-0.34-1.786-0.417
	c-0.078-0.081-0.078-0.204,0-0.249c-0.775-0.126-1.608-0.084-2.147-0.739c0.036-1.121-0.954,0.244-1.163-0.668
	c-2.064-0.712-2.98-2.685-4.757-3.895c-0.66-0.542-1.487-0.99-2.194-1.527c-0.241-0.582-0.954-0.582-1.242-1.205l0.162-0.16
	c0.839,0.21,1.708,0,2.452-0.17c0.822,0.456,1.314-0.54,2.105-0.576c0.414-0.616-0.293-0.951,0.257-1.538
	c-0.094-0.37-0.052-0.82-0.419-1.069c-0.408-0.128-0.754-0.586-1.163-0.209c-1.445-0.377-2.776,0.33-4.348,0.123
	c-0.498-0.665-0.252-1.776-0.288-2.564c0.215-0.54,0.215-0.993,0.157-1.574l-0.319-0.626c-0.709-0.084-1.578-1.116-2.202-0.124
	c-0.117,0.54-0.738,0.75-0.864,1.242c0.039,0.296,0.126,0.542,0.417,0.793c0.159,0.289,0.159,0.663,0,0.988
	c0.408,0.626,0.117,1.538-0.168,2.072l-2.315,0.052c-0.419-0.799-1.367-0.136-2.032-0.427c-0.663,0.427-1.653-0.123-1.988,0.917
	c-0.291,0.87-1.032,1.729-0.5,2.732c0.547,0.948,1.579,0.367,2.454,0.626c0.649-0.586,1.524-0.458,2.271-1.006
	c0.456,0.082,1.121-0.123,1.451,0.212c-0.5,1.608-1.744,2.978-2.697,4.343c-0.118,0.456-0.778,0.456-0.778,0.995
	c-1.328,1.121-2.74,2.486-4.603,2.436c-1.157,0.298-0.492,1.325-0.657,2.245c0.079,0.369,0.409,0.828,0.87,0.786
	c2.024-0.17,3.473-1.493,4.793-2.936c1.498-1.042,2.656-2.659,3.648-4.138c0.129-0.377,0.66-0.542,0.699-0.998
	c1.949-0.87,2.448,1.946,4.02,2.318c0.131,0.618,0.66,0.831,0.917,1.359c0.696,0.254,0.539,1.171,1.115,1.532
	c0.126,0.293,0.534,0.335,0.534,0.666c0.75,0.663,1.373,1.535,1.619,2.525c0.66,1.375,2.153,0.705,3.269,0.872
	c0.582-0.375,0.744,0.372,1.367,0.205c0.409-0.372,0.948-0.412,1.493-0.493C107.38,82.466,107.998,83.092,108.58,82.591z"/>
<path style="fill-rule:evenodd;clip-rule:evenodd;fill:#C09A5D;" d="M22.308,67.232c0.453-0.369,1.414,0.202,1.7-0.448
	c0.534-0.257,1.152-0.335,1.652-0.626c0.215-0.333,0.215-0.954-0.159-1.113L23.722,65c-0.626-0.123-1.244-0.377-1.911-0.456
	c-0.445,0.078-0.445,0.576-0.742,0.783c-0.165,0.456-0.039,0.915,0.037,1.37C21.273,67.232,21.811,67.405,22.308,67.232z"/>
<path style="fill-rule:evenodd;clip-rule:evenodd;fill:#C09A5D;" d="M18.046,72.327c0.582-0.341,1.325-0.495,1.943-0.663
	c1.781,0,3.439-0.33,5.092-0.915c0.213-0.492,0.249-1.155-0.047-1.694c-0.361-0.126-0.492,0.335-0.819,0.419
	c-1.53,0.325-3.146,0.121-4.634,0.044c-0.545-1.037-1.566-0.34-2.195,0.207c-0.461,0.616-0.293,1.236-0.371,1.938
	C17.138,72.039,17.546,72.366,18.046,72.327z"/>
<path style="fill-rule:evenodd;clip-rule:evenodd;fill:#C09A5D;" d="M32.497,69.055C32.373,69.1,32.248,69.1,32.122,69.1
	c-1.364,0.123-2.938,0-4.262,0.165l-0.374,1.077c1.236,1.155,1.657,2.852,1.448,4.507c0.084,0.375,0.291,0.951,0.788,0.741
	c0.621-0.741,1.532-0.898,2.399-0.987h0.618c0.202,0.126,0.456-0.167,0.623,0.042c-0.131,0.167,0,0.411-0.167,0.542
	c-0.372-0.052-0.699-0.165-1.074-0.212c-0.168-0.037-0.333-0.037-0.498-0.037c-0.461,0.118-0.5,0.579-0.785,0.906
	c-0.039,0.456-0.126,1.035,0.285,1.317c0.288,0.092,0.713,0.301,0.998,0c0.464,0.055,0.993-0.403,1.328,0.092
	c0.123,0.118,0.123,0.288,0,0.456c-0.461,0-0.917,0.04-1.328,0.076c-1.485,0.17-2.896,0.586-4.466,0.38l-1.249,0.738
	c-0.123,0.293-0.171,0.666-0.456,0.794c-0.361,0.534-0.621,1.108-0.291,1.692c0.252,0.207,0.459,0.259,0.786,0.207
	c1.04-0.655,2.404-0.616,3.521-1.079c0.746-0.04,1.445-0.16,2.155-0.328c1.199-0.244,2.36-0.532,3.599-0.325
	c0.249-0.047,0.459-0.084,0.708-0.047c1.073,0,2.192,0.414,3.308,0.54c0.744,0.121,1.286,0.624,2.114,0.624
	c0.374-0.463,1.277-0.377,1.322-1.2c0.663-0.212,0.872-0.995,0.911-1.577c-0.128-0.33-0.578-0.249-0.822-0.621
	c-0.377-0.042-0.914-0.163-1.123,0.291c-1.776,0.33-3.518-0.089-5.26-0.165h-0.45c-0.341,0.04-0.624,0.076-0.917-0.042
	c-0.121-0.204-0.034-0.45,0.209-0.579c0.249,0.073,0.503,0.039,0.708-0.084c0.243-0.086,0.5-0.207,0.785-0.207
	c0.459-0.249,0.657-0.786,0.576-1.323c-0.246-0.537-0.825-0.419-1.361-0.377c-0.294,0.037-0.624,0.037-0.872-0.042
	c-0.079-0.157,0-0.411,0.083-0.574c0.246-0.047,0.54-0.086,0.789-0.047c0.115,0,0.207,0.047,0.293,0.084
	c0.736,0.456,1.149-0.5,1.862-0.289c0.283-0.125,0.283-0.414,0.406-0.621c0.05-1.658,0.961-3.064,1.781-4.432
	c0.332-0.534-0.409-0.534-0.66-0.828c-0.666-0.579-1.071,0.414-1.653,0.414c-0.707-0.157-1.33,0.126-2.029,0.126
	c-0.171,0-0.341-0.034-0.501-0.086c0.207-0.197,0.37-0.453,0.501-0.702c0.207-0.453,0.327-0.912,0.45-1.317
	c0.872-0.417,1.907-0.375,2.773-0.257c0.786-0.16,1.985,0.621,2.486-0.411c0.209,0.212,0.497,0.042,0.704,0
	c-0.12-0.621,0.375-1.032,0.081-1.571c-0.411-0.205-0.911-0.168-1.286,0.078c-0.948-0.283-2.105-0.167-2.978-0.621
	c-1.071,0.131-0.621-0.948-0.453-1.527c0-0.618,0.62-1.111,0.33-1.778c-0.33-0.54-0.948-1.242-1.658-0.791
	c-0.157,0.131-0.335,0.288-0.45,0.456c-0.825,1.077-0.171,2.732-0.872,3.897c-0.289,0.862-0.328,1.857-0.7,2.648
	c-0.131,0.699-0.086,1.49,0.411,1.896C34.398,69.055,33.321,68.856,32.497,69.055z M33.115,72.452
	c-0.333-0.042-0.666,0.118-0.993,0.207c-0.285,0.084-0.584,0.125-0.867-0.165c-0.044-0.335-0.175-0.624-0.209-0.954
	c0.327-0.044,0.701-0.125,1.076-0.167c0.327-0.039,0.618-0.039,0.953,0C32.989,71.753,33.363,72.078,33.115,72.452z M36.429,70.674
	c0.411-0.249,0.785,0.073,0.83,0.495c-0.294,0.453,0.12,1.443-0.715,1.364c-0.034,0-0.068,0-0.115,0.037
	c-0.459,0.042-0.749-0.244-0.872-0.658C35.512,71.297,35.886,70.792,36.429,70.674z"/>
<path style="fill-rule:evenodd;clip-rule:evenodd;fill:#C09A5D;" d="M26.82,74.519c-0.125-0.702,0.501-1.86-0.497-2.067
	c-1.446,0.912-2.895,1.454-4.597,1.613c-0.361,0.124-0.741,0.37-1.111,0.165c-0.626,0.744-0.743,1.904-0.419,2.813
	c0.207,0.419,0.668,0.623,1.169,0.665c0.696-0.209,1.44-0.951,2.31-1.116C24.542,75.433,26.119,75.8,26.82,74.519z"/>
<path style="fill-rule:evenodd;clip-rule:evenodd;fill:#C09A5D;" d="M132.881,79.784c0.079,0.081,0.168,0.162,0.241,0.244
	c0.702,0.699,1.199,1.621,1.535,2.564c0.288,0.461,0.335,1.325,1.11,1.284c0.885,0.042,1.535-0.705,2.53-0.37
	c1.079-0.453,2.53-0.167,3.599-0.747c0.042-0.083,0.12-0.372,0.372-0.251c0.466-0.207-0.073-0.822,0.288-1.118
	c-0.325-0.409-0.943-0.409-1.482-0.165c-1.823-0.079-3.479-1.197-4.469-2.813c-0.497-0.537-1.21-1.074-1.283-1.899
	c0.707-0.961,1.026-2.117,1.734-3.106c0.958-0.495,1.037-1.742,1.283-2.69c0-0.626-0.786-0.375-1.2-0.626
	c-1.372,0.251-2.646,0.037-4.018-0.042c-0.534-0.037-1.032-0.037-1.566,0c-0.55-0.205-0.33-0.87-0.383-1.244l-0.073-0.04
	c-0.246-0.49,0.168-0.741,0.456-1.029c0.534-0.086,1.032-0.17,1.566-0.254c0.456-0.047,0.911-0.123,1.372-0.16
	c1.116,0.414,1.949-0.414,2.971,0.037c0.629,0,0.503-0.744,0.796-1.116c0-0.286,0.409-0.458,0.252-0.783
	c-0.252-0.296-0.498-0.503-0.839-0.537c-1.021,0-2.231-0.044-3.18,0.367c-0.461-0.167-0.916-0.244-1.372-0.288
	c-0.87-0.123-1.771-0.16-2.567-0.456c-1.529-0.037-1.403,2.318-3.101,1.823l-2.729-2.444h-0.042l-0.414-0.162
	c-0.581-0.461-1.283-0.914-1.576-1.619c-0.204-0.286-0.451-0.744-0.864-0.778c-0.09,0-0.163,0-0.288,0.034
	c-0.425,0.249-0.624,0.783-0.797,1.236c-1.979,1.663-2.646,4.149-4.432,5.88c-0.612,0.542-1.65,0.414-2.021,1.212
	c-0.126,0.613,0.534,0.773,0.906,1.063c0.581,0.663,1.325,0.089,1.943,0c0.796-0.45,1.168-1.317,1.54-2.027
	c0.084-0.154,0.282-0.458,0.461-0.33c0.031,0.422-0.215,0.666-0.377,0.959c-0.121,0.45-0.215,0.948,0.198,1.281
	c0.336,0.244,0.666,0.414,1.079,0.244c0.456-0.493,1.121-0.576,1.787-0.576h0.9c0.713-0.17,1.331,0.037,1.954-0.04
	c0.199-0.044,0.367-0.084,0.576-0.212c0.168-0.825-0.282-1.326-0.497-1.988l0.089-0.079c0.99,0.411,1.445,2.195,2.776,1.65
	c0.151-0.155,0.45-0.535,0.702-0.079c0.162,2.161,1.026,4.51-0.252,6.626c0.079,0.823-0.749,1.116-1.199,1.734
	c-0.335,0-0.749,0.542-0.959,0c0.294-0.167,0.911-0.33,0.665-0.867c0.42-1.032,0.33-2.111,0.786-3.109
	c0.325-0.702-0.33-1.784,0.54-2.224c0.047-0.215,0.12-0.544-0.168-0.751c-0.912,0.047-1.529-0.877-2.525-0.503
	c-0.167,0.215-0.335,0.38-0.534,0.503c-0.827,0.492-1.87,0.207-2.854,0.244c-0.288,0.05-0.587,0.086-0.875,0.207
	c-0.576-0.039-1.373-0.325-1.859,0.17c-0.906,0.571-1.781,1.457-1.661,2.606c0.959,0.414,0.833,1.491,1.037,2.234
	c0.246,1.119,0.246,2.271,0.294,3.481c0.083,1.035-0.294,2.148-1.001,2.981c0,0.702,0.786,1.116,1.378,1.362
	c0.618-0.034,1.283-0.076,1.603-0.699c0.336-0.084,0.707-0.207,1.085-0.293c0.948-0.286,1.896-0.456,2.854-0.621
	c0.409-0.084,0.786-0.168,1.194-0.207c0.126-0.582,0.838-1.244,0.419-1.818c-0.544-0.417-1.079-0.133-1.613,0
	c-0.299,0.076-0.623,0.076-0.917-0.133c-0.576,0.209-1.277,0.34-1.938,0.424c-0.336,0.039-0.666,0.073-0.996,0.073l-0.214-0.157
	c-0.042-0.17-0.042-0.458,0.167-0.584c0.33,0,0.665-0.084,1.043-0.123c0.948-0.205,1.938-0.493,2.854-0.412h0.168
	c0.534-0.042,1.529-0.372,1.813,0.247c1.115,0.335,1.749-0.747,2.404-1.367c0.707-0.498,0.623-1.86,1.739-1.656
	c0.366,0.082,0.366,0.458,0.366,0.786c1.001,0.495-0.167,1.037-0.036,1.702c-0.162,0.288-0.456,0.453-0.78,0.495
	c-0.797,0.948-2.027,1.278-3.274,1.244c-0.702,0.655-1.121,1.776-0.786,2.811c0.288,0.409,0.744,0.288,1.2,0.254
	c1.236-0.783,2.608-1.414,3.855-2.323c-0.215-0.503,0.366-0.618,0.445-0.99C132.336,80.769,132.42,80.061,132.881,79.784z
	 M122.446,67.481h-0.618c-0.912-0.079-1.949-0.16-2.441,0.71h-0.162l0.073-0.249l1.618-2.234c0.246-0.167,0.576-0.338,0.912-0.301
	c0.084,0,0.209,0.053,0.282,0.134c0.749,0.789,1.697,1.283,2.273,2.195C123.808,67.358,123.111,67.693,122.446,67.481z
	 M121.828,73.571c0.701-0.089,1.398-0.089,2.189-0.207l0.12,0.286c-0.078,0.5-0.738,0.5-1.241,0.54c-0.33-0.084-0.702,0-1.068,0
	c-0.419,0.042-0.749-0.04-0.875-0.417C121.241,73.694,121.54,73.61,121.828,73.571z M122.362,78.372l-0.534,0.04h-0.786
	c-0.126-0.246,0.293-0.328,0.45-0.456c0.084,0.04,0.205,0.04,0.336,0.04c0.24-0.04,0.534-0.163,0.534,0.249V78.372z M121.828,76.669
	c-0.288,0.173-0.587,0.212-0.954-0.076c-0.042-0.624,0.493-0.666,0.954-0.793c0.12-0.037,0.24-0.079,0.33-0.16
	c0.288,0.124,0.534,0,0.869,0c0.283,0.082,0.828-0.05,1.032,0.33l-0.582,0.417C122.813,75.886,122.32,76.423,121.828,76.669z
	 M124.683,78.165c-0.204-0.045-0.414-0.045-0.581,0.078c-0.126-0.123-0.084-0.369-0.042-0.534c0.162-0.042,0.419-0.125,0.623-0.125
	c0.294-0.042,0.534,0.042,0.702,0.335C125.259,78.243,124.977,78.204,124.683,78.165z M132.42,72.659c0.252,0,0.461,0.037,0.702,0
	c0.456,0,0.911-0.047,1.325,0.086c0.21,0.372,0,0.904-0.126,1.234c-0.246,0.298-0.288,0.793-0.659,0.749
	c-0.084-0.247-0.247-0.579-0.54-0.71c-0.031-0.039-0.126-0.079-0.162-0.079c-0.582,0.338-0.912-0.33-1.163-0.624
	C131.383,72.785,132.252,72.989,132.42,72.659z"/>
<path style="fill-rule:evenodd;clip-rule:evenodd;fill:#C09A5D;" d="M171.007,69.673c0,0.668-0.918,0.668-1.295,1
	c-1.482,0.288-2.934-0.047-4.547,0.042c-0.539,0.414-1.115-0.128-1.744-0.042c-0.492-0.128-0.451-0.663-0.66-1.079
	c-0.168-0.739-0.869-0.87-1.445-1.04c-0.162-0.073-0.336-0.157-0.492-0.249c0.156,0,0.33-0.032,0.492-0.032
	c0.539-0.042,1.074-0.123,1.529-0.042c1.361-0.249,2.688,0.165,4.102-0.042c0.582,0.207,1.199,0.613,1.813,0.325
	c0.094-0.209-0.121-0.325-0.324-0.411c-0.205-0.197-0.084-0.412-0.084-0.702c-0.037-0.495-0.371-0.954-0.822-1.244
	c-0.258-0.123-0.707-0.286-0.953-0.042c-0.592,0.126-1.211,0.705-1.74,0.293c-0.748,0.039-1.371-0.419-2.074-0.167
	c-0.451-0.042-0.943-0.084-1.445-0.084c-2.074-0.079-4.18,0.042-6.25-0.123c-0.707-0.708-2.115-0.576-2.813,0.081
	c-0.167,0.582-0.587,1.166-0.293,1.826c-0.456,1.071,0.827,1.784,0.455,2.85c0.535,0.909,0.163,2.033,0.451,3.025
	c0.131,1.823-0.613,3.4-1.362,4.843c-1.068,1.038-2.32,1.991-3.771,2.282c-0.707,0.162-1.367-0.464-1.854,0
	c-0.126,0.408-0.042,0.99,0.126,1.359c0.24,0.791,0.864,0.375,1.487,0.498c1.446-0.655,3.358-0.498,4.343-2.03
	c0.665-1.071,1.619-1.983,2.284-2.981c-0.164-1.069,0.611-1.901,0.361-3.059c0.492-0.372,0.131-1.035,0.334-1.574
	c0.535-1.168-0.334-2.15-0.334-3.18c0.209-0.249,0.334-0.673,0.209-1.006c0.168-0.487,0.701-0.535,1.08-0.663
	c1.031,0.091,2.105-0.074,3.189,0.091c0.492,0.037,0.947-0.207,1.404-0.047c-0.33,0.293-0.787,0.333-1.121,0.618
	c-0.043,0.296-0.236,0.582-0.158,0.964c0.986,0.741,0.33,1.98,0.576,3.057c-0.209,0.375-0.246,0.828-0.209,1.241
	c0.492,0.582-0.037,1.286-0.287,1.826l-3.684,0.115c-0.75,0.377-0.461,1.412-0.666,2.109c0.875,0.917,0.996,2.163,0.912,3.368
	c-0.246,0.613,0.414,0.943,0.246,1.522c-0.66,0.705,0.252,1.291,0.539,1.817c0.625,0.254,1.037-0.076,1.613-0.283
	c0.99-0.207,2.07-0.296,3.191-0.244c0.125,0,0.199,0.037,0.324,0.037c1.744-0.456,3.154,0.582,4.805,0.451l0.25-0.16
	c0.084-1.32,0.295-2.449,0.545-3.774c0.074-1.029,0.031-2.229,0.865-3.06c-0.047-0.618,0.617-0.911,0.533-1.532
	c-1.283-1.859-3.604,0.089-5.426-0.623c-0.158,0-0.326-0.16-0.283-0.325c-0.084-0.911,0.535-1.16,0.947-1.825
	c1.488-0.079,3.023-0.621,4.475-0.079c0.666-0.134,1.277,0.707,1.943,0.079c0.508-0.414,0-1.038,0.125-1.572
	c-0.078-0.322,0.383-0.207,0.588-0.414c-0.09-0.417,0.613-0.783,0.078-1.163c0.115-0.076,0.168-0.16,0.289-0.16
	c0.088-0.251,0.162-0.616-0.037-0.823C171.169,69.519,171.044,69.55,171.007,69.673z M164.05,78.903
	c-0.174,1.042-0.084,2.368-1.289,2.821c-0.451,0.083-0.943,0.162-1.445,0.207c-0.744,0.079-1.494,0-2.117-0.453
	c-0.738-0.498-0.24-1.493-0.576-2.153c0.047-0.249,0.293-0.377,0.492-0.54c0.791-0.05,1.504-0.207,2.201-0.288
	C162.263,78.411,163.138,78.411,164.05,78.903z"/>
<path style="fill-rule:evenodd;clip-rule:evenodd;fill:#C09A5D;" d="M39.487,82.091c0.045-0.247-0.162-0.443-0.29-0.613
	l-2.722-0.828c-0.59,0.364-0.178,0.998-0.252,1.493c0.412,0.532-0.089,1.152,0.616,1.647C38.081,83.914,38.581,82.639,39.487,82.091
	z"/>
<path style="fill-rule:evenodd;clip-rule:evenodd;fill:#C09A5D;" d="M29.474,81.766c-0.785,0.621-0.248,1.703-0.086,2.394
	c0.283,0.828,0.956,0.092,1.532,0.128c1.16-0.325,1.453-1.448,1.577-2.522C31.538,81.389,30.545,82.18,29.474,81.766z"/>
<path style="fill-rule:evenodd;clip-rule:evenodd;fill:#C09A5D;" d="M141.283,95.932v5.249c-1.33,0.039-2.566,0.075-3.892,0.075
	c-1.247,0-2.52-0.036-3.851-0.075v-5.249c-0.299,0-0.581,0.033-0.827,0.033c-0.294,0-0.54-0.033-0.797-0.033v12.574
	c0.257-0.041,0.503-0.078,0.797-0.078c0.246,0,0.528,0.037,0.827,0.078v-6.333c1.331-0.036,2.567-0.123,3.851-0.123
	c1.325,0,2.562,0.087,3.892,0.123v6.333c0.247-0.041,0.535-0.078,0.775-0.078c0.299,0,0.551,0.037,0.833,0.078V95.932
	c-0.282,0-0.534,0.033-0.833,0.033C141.818,95.965,141.53,95.932,141.283,95.932z"/>
<path style="fill-rule:evenodd;clip-rule:evenodd;fill:#C09A5D;" d="M152.625,96.418h-0.084c-3.557,0-6.38,2.36-6.38,6.163
	c0,3.691,2.524,6.093,6.38,6.093h0.084c3.808-0.045,6.489-2.527,6.489-6.378C159.114,98.197,155.851,96.418,152.625,96.418z
	 M152.625,108.132h-0.047c-2.567,0-4.72-1.859-4.72-5.341c0-3.479,1.78-5.747,4.767-5.836h0.126c1.367,0,2.729,0.621,3.551,1.703
	c0.922,1.157,1.121,2.357,1.121,3.8C157.548,104.323,156.224,108.09,152.625,108.132z"/>
<path style="fill-rule:evenodd;clip-rule:evenodd;fill:#C09A5D;" d="M160.979,96.67c0.043,0.204,0.084,0.327,0.084,0.495
	c0,0.204-0.041,0.374-0.084,0.531c1-0.12,2.074-0.199,3.814-0.199v11.009c0.24,0,0.492-0.041,0.738-0.041
	c0.252,0,0.508,0.041,0.797,0.041V97.497c1.529,0,2.738,0.079,3.598,0.199c-0.047-0.157-0.047-0.327-0.047-0.531
	c0-0.168,0-0.291,0.047-0.495H160.979z"/>
<path style="fill-rule:evenodd;clip-rule:evenodd;fill:#C09A5D;" d="M177.298,107.556c-1.043,0.039-2.074,0.076-3.154,0.076v-5.051
	h2.693c0.492,0,0.99,0.048,1.535,0.087c0-0.21-0.047-0.372-0.047-0.495c0-0.168,0.047-0.293,0.047-0.461
	c-0.545,0.045-1.043,0.087-1.535,0.087h-2.693v-4.302h1.326h1.744c0.492,0.042,1.037,0.079,1.566,0.199
	c-0.037-0.157-0.078-0.327-0.078-0.531c0-0.168,0.041-0.291,0.078-0.495h-6.16v11.758h6.244c0-0.176-0.037-0.338-0.037-0.5
	c0-0.163,0.037-0.333,0.037-0.543C178.325,107.472,177.827,107.556,177.298,107.556z"/>
<path style="fill-rule:evenodd;clip-rule:evenodd;fill:#C09A5D;" d="M188.382,107.385c-0.539,0.087-1.084,0.171-1.65,0.171
	c-1.041,0.039-2.068,0.076-3.111,0.076V96.67c-0.283,0-0.533,0.036-0.785,0.036c-0.24,0-0.498-0.036-0.75-0.036v11.758h6.297
	c0-0.176-0.041-0.338-0.041-0.5C188.341,107.765,188.382,107.595,188.382,107.385z"/>
<path style="fill-rule:evenodd;clip-rule:evenodd;fill:#C09A5D;" d="M7.121,96.335c1.527,0,3.102,0.581,4.142,1.775h0.165
	c0.162-0.495,0.288-0.945,0.447-1.404c-0.416-0.288-1.946-1.073-4.72-1.073C3.101,95.633,0,97.909,0,102.22
	c0,3.717,2.152,6.496,6.786,6.496c1.697,0,3.395-0.288,5.003-0.875v-5.173c-0.288,0-0.526,0.05-0.817,0.05
	c-0.249,0-0.548-0.05-0.791-0.05v4.717c-0.867,0.456-1.901,0.624-2.902,0.624c-3.599,0-5.461-2.273-5.461-5.92
	C1.817,98.401,3.973,96.335,7.121,96.335z"/>
<path style="fill-rule:evenodd;clip-rule:evenodd;fill:#C09A5D;" d="M22.761,107.103l-3.557-4.521
	c1.739-0.321,3.518-1.283,3.518-3.311c0-1.694-1.113-2.601-3.725-2.601h-0.079H15.23v11.795c0.252,0,0.495-0.037,0.788-0.037
	c0.207,0,0.456,0.037,0.747,0.037v-5.747h0.662l1.367,1.608l0.202,0.246l1.825,2.399c0.375,0.5,0.739,0.998,1.113,1.493
	c0.291,0,0.663-0.037,0.993-0.037c0.29,0,0.618,0.037,0.995,0.037l-0.33-0.412L22.761,107.103z M16.766,102.05v-4.754
	c0.62,0,1.566-0.042,2.231,0c0.084,0,0.207,0,0.291,0.031c1.327,0.212,1.909,0.99,1.909,2.15c0,1.367-0.959,2.234-2.2,2.48
	C18.088,102.134,17.015,102.092,16.766,102.05z"/>
<path style="fill-rule:evenodd;clip-rule:evenodd;fill:#C09A5D;" d="M30.506,96.418l-0.204,0.456l-5.179,11.591
	c0.171,0,0.378-0.037,0.584-0.037c0.205,0,0.412,0.037,0.66,0.037c0.498-1.608,1.119-3.099,1.695-4.634h2.239h2.147
	c0.699,1.571,1.328,3.229,1.821,4.634c0.29,0,0.586-0.037,0.911-0.037c0.296,0,0.584,0.037,0.909,0.037l-5.174-12.047H30.506z
	 M30.302,103.082h-1.909l1.909-4.424v0.036l1.904,4.388H30.302z"/>
<path style="fill-rule:evenodd;clip-rule:evenodd;fill:#C09A5D;" d="M47.768,96.67v8.895h-0.163L39.37,96.67h-0.668v11.795
	c0.165,0,0.288-0.037,0.495-0.037c0.128,0,0.293,0.037,0.455,0.037V99.15h0.21l7.449,8.284c0.372,0.406,0.702,0.817,0.914,1.03
	h0.495V96.67c-0.165,0-0.327,0.036-0.495,0.036C48.061,96.706,47.891,96.67,47.768,96.67z"/>
<path style="fill-rule:evenodd;clip-rule:evenodd;fill:#C09A5D;" d="M61.673,97.696c-1.068-0.908-2.313-1.026-3.641-1.026H56.67
	h-3.937v11.758h3.395c0.618,0,1.283,0,1.904-0.042c1.196-0.134,2.357-0.416,3.311-1.283c1.283-1.118,2.155-2.695,2.155-5.098
	C63.498,100.392,62.961,98.778,61.673,97.696z M59.32,107.23c-0.377,0.204-0.827,0.325-1.288,0.401
	c-1.239,0.209-2.648,0.089-3.767,0V97.369c0.744-0.042,1.453-0.073,2.2-0.073c0.576,0,1.118,0.031,1.566,0.073
	c2.689,0.377,3.771,1.825,3.771,4.927C61.804,104.407,61.181,106.312,59.32,107.23z"/>
<path style="fill-rule:evenodd;clip-rule:evenodd;fill:#C09A5D;" d="M81.674,95.932v5.249c-1.328,0.039-2.57,0.075-3.851,0.075
	c-1.289,0-2.577-0.036-3.89-0.075v-5.249c-0.296,0-0.553,0.033-0.828,0.033c-0.254,0-0.542-0.033-0.791-0.033v12.574
	c0.249-0.041,0.537-0.078,0.791-0.078c0.275,0,0.532,0.037,0.828,0.078v-6.333c1.313-0.036,2.601-0.123,3.89-0.123
	c1.28,0,2.522,0.087,3.851,0.123v6.333c0.243-0.041,0.531-0.078,0.822-0.078c0.251,0,0.495,0.037,0.791,0.078V95.932
	c-0.296,0-0.54,0.033-0.791,0.033C82.205,95.965,81.917,95.932,81.674,95.932z"/>
<path style="fill-rule:evenodd;clip-rule:evenodd;fill:#C09A5D;" d="M88.083,96.67v11.795c0.212,0,0.497-0.037,0.749-0.037
	c0.249,0,0.497,0.037,0.746,0.037V96.67c-0.249,0-0.497,0.036-0.746,0.036C88.58,96.706,88.295,96.67,88.083,96.67z"/>
<path style="fill-rule:evenodd;clip-rule:evenodd;fill:#C09A5D;" d="M104.436,107.511c-1.115,0.045-2.189,0.121-3.311,0.084V95.932
	c-0.324,0.033-0.576,0.033-0.822,0.033c-0.293,0-0.539,0-0.791-0.033v12.533h6.663c0-0.213-0.042-0.375-0.042-0.582
	c0-0.162,0.042-0.327,0.042-0.537C105.599,107.435,105.022,107.511,104.436,107.511z"/>
<path style="fill-rule:evenodd;clip-rule:evenodd;fill:#C09A5D;" d="M112.886,96.418l-0.215,0.456l-5.171,11.632
	c0.205,0,0.372-0.041,0.624-0.041c0.199,0,0.372,0.041,0.618,0.041c0.497-1.613,1.121-3.14,1.739-4.675h2.189h2.2
	c0.665,1.571,1.283,3.229,1.775,4.675c0.33,0,0.629-0.041,0.954-0.041c0.288,0,0.545,0.041,0.869,0.041l-5.176-12.088H112.886z
	 M112.671,103.121h-1.865l1.865-4.427v0.047l1.907,4.38H112.671z"/>
<path style="fill-rule:evenodd;clip-rule:evenodd;fill:#C09A5D;" d="M120.576,96.67v11.836c0.256,0,0.503-0.041,0.759-0.041
	c0.241,0,0.493,0.041,0.733,0.041V96.67c-0.24,0.036-0.492,0.076-0.733,0.076C121.079,96.746,120.832,96.706,120.576,96.67z"/>
<polygon style="fill-rule:evenodd;clip-rule:evenodd;fill:#C09A5D;" points="92.808,103.579 95.494,103.417 96.363,102.296 
	93.921,102.458 "/>
</svg>
